# xmcd CD database file
#
# Track frame offsets:
#	182
#	14585
#	24585
#	44655
#	56825
#	67057
#	79850
#	97397
#	109157
#	123730
#	139817
#	155262
#	173055
#	193525
#	203942
#	220475
#	239305
#	254035
#
# Disc length: 3754 seconds
#
# Revision: 2
# Processed by: cddbd v1.4PL0 Copyright (c) Steve Scherf et al.
# Submitted via: Feurio! 1.65.2ß - http://www.feurio.com
#
DISCID=1d0ea812
DTITLE=Glen Campbell - The Rhinestone Cowboy Rides Again
DYEAR=1990
DGENRE=country
TTITLE0=Rhinestone Cowboy
TTITLE1=Gentle On Y Mind
TTITLE2=Medley: Wichita Lineman, Galveston, Country Boy
TTITLE3=By The Time I Get To Phoenix
TTITLE4=Dreams Of A Everyday Housewife
TTITLE5=Heartache No. 2
TTITLE6=Please Come To Boston
TTITLE7=It's Only Make Believe
TTITLE8=Crying
TTITLE9=Rollin' (In My Sweet Baby's Arms)
TTITLE10=I'm So Lonesome I Could Cry
TTITLE11=Southern Nights
TTITLE12=Amazing Grace
TTITLE13=Try A Little Kindness
TTITLE14=In Your Loving Arms Again
TTITLE15=It's Your World Boys And Girls
TTITLE16=Trails And Tribulations
TTITLE17=Mull Of Kintyre
EXTD=
EXTT0=
EXTT1=
EXTT2=
EXTT3=
EXTT4=
EXTT5=
EXTT6=
EXTT7=
EXTT8=
EXTT9=
EXTT10=
EXTT11=
EXTT12=
EXTT13=
EXTT14=
EXTT15=
EXTT16=
EXTT17=
PLAYORDER=
